<?xml version="1.0" standalone="no"?>
<!DOCTYPE svg PUBLIC "-//W3C//DTD SVG 20010904//EN"
 "http://www.w3.org/TR/2001/REC-SVG-20010904/DTD/svg10.dtd">
<svg version="1.0" xmlns="http://www.w3.org/2000/svg"
 width="512.000000pt" height="512.000000pt" viewBox="0 0 512.000000 512.000000"
 preserveAspectRatio="xMidYMid meet">
<metadata>
Created by potrace 1.11, written by Peter Selinger 2001-2013
</metadata>
<g transform="translate(0.000000,512.000000) scale(0.100000,-0.100000)"
fill="#000000" stroke="none">
<path d="M391 4898 c-74 -28 -142 -97 -170 -171 l-21 -58 0 -2109 c0 -2088 0
-2110 20 -2163 27 -73 79 -130 148 -164 l57 -28 2135 0 2135 0 57 28 c64 32
111 80 142 146 l21 46 0 2135 0 2135 -28 57 c-34 69 -91 121 -164 148 -53 20
-75 20 -2166 19 l-2112 0 -54 -21z m3018 -222 c66 -35 66 -137 0 -172 -24 -12
-185 -14 -1048 -14 -770 0 -1026 3 -1046 12 -69 31 -71 137 -4 174 37 21 2058
20 2098 0z m400 0 c67 -35 65 -143 -4 -174 -91 -41 -179 51 -131 137 26 47 84
63 135 37z m400 -630 c15 -8 32 -26 39 -41 17 -36 17 -2256 1 -2288 -16 -31
-608 -625 -641 -643 -22 -12 -110 -14 -515 -14 l-488 0 -185 -186 c-102 -102
-197 -192 -212 -200 -36 -19 -453 -21 -493 -2 -48 22 -55 52 -55 228 l0 160
-360 0 c-386 0 -400 2 -426 51 -21 42 -21 2457 0 2497 16 30 410 424 441 441
14 7 437 10 1443 11 1212 0 1427 -2 1451 -14z"/>
<path d="M1232 3687 l-172 -172 0 -1128 0 -1127 360 0 c257 0 367 -3 385 -12
48 -22 55 -52 55 -228 l0 -160 128 0 127 0 185 186 c102 102 197 192 212 200
22 12 111 14 515 14 l488 0 273 273 272 272 0 1028 0 1027 -1328 0 -1327 0
-173 -173z m2577 -41 c15 -8 32 -26 39 -41 9 -19 12 -209 12 -746 0 -606 -2
-724 -14 -747 -18 -32 -412 -425 -443 -441 -15 -7 -146 -11 -410 -11 l-388 0
-185 -186 c-102 -102 -197 -192 -212 -200 -33 -17 -59 -18 -93 -2 -48 22 -55
52 -55 228 l0 160 -260 0 c-179 0 -267 4 -285 12 -57 26 -55 -13 -55 990 1
990 -1 955 51 984 37 21 2258 20 2298 0z"/>
<path d="M1660 2660 l0 -800 260 0 c283 0 305 -4 328 -55 7 -14 12 -65 12
-113 l0 -87 118 117 c64 64 127 121 139 127 15 7 146 11 410 11 l388 0 173
173 172 172 0 628 0 627 -1000 0 -1000 0 0 -800z m949 386 c49 -26 51 -42 51
-387 0 -257 -3 -325 -14 -348 -35 -66 -137 -66 -172 0 -20 39 -20 662 0 698
26 47 84 63 135 37z m600 0 c49 -26 51 -42 51 -387 0 -257 -3 -325 -14 -348
-35 -66 -137 -66 -172 0 -20 39 -20 662 0 698 26 47 84 63 135 37z"/>
</g>
</svg>
